<?xml version="1.0" standalone="no"?>
<!DOCTYPE svg PUBLIC "-//W3C//DTD SVG 20010904//EN"
 "http://www.w3.org/TR/2001/REC-SVG-20010904/DTD/svg10.dtd">
<svg version="1.0" xmlns="http://www.w3.org/2000/svg"
 width="512.000000pt" height="524.000000pt" viewBox="0 0 512.000000 524.000000"
 preserveAspectRatio="xMidYMid meet">

<g transform="translate(0.000000,524.000000) scale(0.100000,-0.100000)"
fill="#000000" stroke="none">
<path d="M2435 5060 c-218 -15 -452 -73 -665 -165 -161 -69 -355 -181 -367
-211 -3 -8 0 -21 7 -29 25 -30 1 -26 -45 7 -26 18 -57 40 -69 48 -12 8 -67 50
-124 92 -56 43 -115 84 -132 93 -16 8 -34 23 -40 32 -9 15 -10 13 -5 -12 3
-16 8 -50 12 -75 3 -25 9 -50 14 -55 4 -6 17 -46 29 -89 11 -43 27 -88 35
-100 8 -11 15 -30 15 -41 0 -11 6 -29 14 -40 17 -25 37 -95 27 -95 -4 0 -13 6
-20 13 -10 10 -26 -2 -79 -58 -235 -246 -425 -598 -520 -960 -25 -98 -53 -238
-57 -291 -13 -166 -16 -400 -6 -484 7 -52 15 -122 18 -155 6 -72 26 -115 53
-115 38 0 19 -30 -52 -83 -113 -83 -287 -206 -311 -219 -14 -7 -17 -13 -9 -16
7 -2 35 12 62 32 28 20 55 36 60 36 6 0 10 4 10 8 0 4 15 16 33 27 17 10 38
25 46 33 8 7 32 25 53 38 22 14 117 80 211 147 211 150 227 160 227 147 0 -6
-14 -19 -31 -28 -18 -9 -39 -25 -48 -34 -8 -10 -21 -18 -27 -18 -7 0 -14 -7
-18 -15 -3 -8 -11 -15 -19 -15 -7 0 -24 -11 -37 -25 -13 -14 -28 -25 -34 -25
-6 0 -26 -14 -43 -30 -18 -17 -36 -31 -40 -32 -21 -2 -33 -11 -33 -24 0 -8 -5
-14 -11 -14 -6 0 -25 -11 -43 -25 -18 -14 -38 -25 -44 -25 -7 0 -12 -4 -12
-10 0 -5 -6 -10 -14 -10 -11 0 -44 -22 -106 -73 -50 -41 -115 -77 -139 -77
-15 0 -36 -7 -47 -15 -18 -13 -17 -15 23 -31 24 -9 43 -23 43 -29 0 -10 38
-12 158 -10 86 2 190 1 230 -2 l72 -6 12 -41 c6 -22 17 -48 24 -56 18 -23 45
-78 42 -87 -2 -5 7 -19 20 -33 12 -13 27 -41 32 -61 6 -20 21 -48 35 -63 14
-15 25 -33 25 -40 0 -7 20 -34 45 -60 25 -27 45 -54 45 -61 0 -7 18 -28 40
-45 22 -17 43 -43 46 -56 4 -14 20 -32 36 -40 16 -8 37 -29 47 -45 11 -17 33
-39 49 -50 17 -10 38 -30 48 -44 9 -14 33 -35 54 -46 21 -12 40 -29 43 -38 2
-9 21 -25 43 -36 21 -11 42 -25 47 -32 17 -28 73 -59 110 -62 5 -1 6 -5 2 -11
-5 -9 53 -46 67 -42 11 3 188 -89 188 -97 0 -11 81 -42 92 -35 5 3 15 -2 22
-11 7 -9 30 -18 55 -21 24 -2 69 -16 100 -31 34 -16 71 -26 95 -25 22 0 48 -4
59 -10 12 -6 46 -11 76 -12 43 -1 60 4 78 20 20 18 22 26 13 48 -12 34 -12 36
0 36 13 0 31 -45 35 -82 1 -15 7 -34 13 -41 7 -8 16 -36 21 -63 5 -27 19 -70
31 -96 11 -27 23 -64 26 -85 2 -20 9 -42 14 -48 5 -6 12 -29 15 -50 5 -41 35
-107 52 -112 11 -4 69 133 79 187 9 56 55 191 76 227 11 18 26 33 33 33 7 0
15 4 17 10 2 6 27 6 69 -2 57 -9 72 -8 99 6 18 9 52 16 75 16 22 0 46 5 51 10
6 6 32 12 60 14 58 4 104 15 104 26 0 9 70 30 103 30 14 0 30 7 34 15 5 8 25
17 46 19 39 5 75 22 92 41 6 7 26 18 45 26 19 7 55 26 80 41 24 16 50 26 57
24 7 -3 26 8 42 25 17 17 40 32 52 34 12 2 41 19 65 37 24 18 59 44 78 58 20
14 36 31 36 37 0 7 16 19 35 27 20 9 44 30 56 51 12 19 31 38 44 41 12 3 31
21 41 40 11 19 34 44 52 54 18 11 38 33 43 50 6 16 15 30 19 30 13 0 70 63 70
77 0 7 6 16 13 20 19 12 57 69 62 93 5 27 15 41 24 35 8 -4 32 36 37 62 1 7
11 27 22 45 37 61 92 171 103 207 10 35 12 36 60 35 28 0 52 3 55 8 6 10 78
11 88 1 12 -12 79 -13 93 -2 8 7 34 10 64 7 36 -4 52 -1 56 8 2 7 19 18 36 24
l32 11 -30 25 c-16 13 -91 67 -165 119 -144 102 -205 149 -179 140 12 -5 20
10 37 73 12 44 22 100 22 125 0 25 5 58 11 73 12 33 15 361 5 479 -9 99 -42
291 -63 365 -47 170 -129 383 -144 374 -5 -3 -6 1 -4 8 3 8 -3 23 -14 35 -11
11 -17 23 -14 27 7 7 -35 87 -56 106 -10 8 -16 20 -14 27 2 6 -1 15 -8 19 -8
5 -9 3 -4 -6 6 -9 4 -11 -4 -6 -7 5 -10 14 -7 21 2 7 -2 16 -11 19 -8 4 -13
13 -9 21 12 31 -323 435 -360 435 -6 0 -17 -14 -24 -30 -21 -51 -33 -48 -26 6
10 66 27 124 38 124 4 0 8 9 8 21 0 11 9 41 21 66 11 25 25 73 30 107 5 33 12
68 16 76 4 8 8 25 9 38 l3 22 -32 -23 c-18 -13 -106 -79 -195 -146 -90 -66
-168 -121 -173 -121 -12 0 10 42 27 53 41 24 -10 61 -206 156 -108 52 -295
124 -354 136 -10 3 -43 11 -72 20 -109 32 -419 69 -524 63 -14 0 -74 -4 -135
-8z m640 -70 c3 -5 2 -10 -4 -10 -5 0 -13 5 -16 10 -3 6 -2 10 4 10 5 0 13 -4
16 -10z m185 -60 c0 -5 -2 -10 -4 -10 -3 0 -8 5 -11 10 -3 6 -1 10 4 10 6 0
11 -4 11 -10z m60 -20 c0 -5 -5 -12 -12 -16 -7 -4 -8 -3 -4 4 4 7 1 12 -9 12
-9 0 -14 4 -10 10 6 10 35 2 35 -10z m35 -10 c-3 -5 -10 -10 -16 -10 -5 0 -9
5 -9 10 0 6 7 10 16 10 8 0 12 -4 9 -10z m22 -22 c-3 -8 -6 -5 -6 6 -1 11 2
17 5 13 3 -3 4 -12 1 -19z m-631 -150 c6 -4 45 -7 86 -6 41 0 83 -4 94 -10 26
-15 176 -52 186 -46 10 6 88 -17 88 -26 0 -13 79 -40 96 -33 11 4 15 2 11 -4
-7 -12 35 -34 75 -39 15 -2 45 -14 66 -28 21 -13 47 -25 58 -28 14 -2 -4 -21
-76 -76 -115 -87 -448 -335 -660 -491 -85 -62 -171 -126 -190 -141 -46 -35
-80 -53 -88 -45 -3 3 -1 19 5 35 l11 30 -221 163 c-122 90 -265 194 -317 232
-197 141 -329 240 -330 247 0 14 34 39 62 45 16 3 32 11 34 18 6 14 57 37 122
54 23 7 40 16 37 21 -4 6 4 10 16 10 30 0 99 21 99 31 0 9 87 39 94 32 7 -7
87 8 82 15 -2 4 17 8 42 10 25 1 52 8 60 15 10 8 43 11 93 10 43 -1 80 1 83 6
6 10 267 9 282 -1z m1234 -313 c0 -3 -11 -28 -25 -57 -13 -28 -28 -66 -31 -85
-7 -36 -21 -51 -34 -37 -5 5 2 31 16 59 13 28 24 58 24 68 0 27 19 57 35 57 8
0 15 -2 15 -5z m-370 -135 c0 -5 -2 -10 -4 -10 -3 0 -8 5 -11 10 -3 6 -1 10 4
10 6 0 11 -4 11 -10z m306 -75 c4 -8 9 -13 14 -10 7 4 35 -44 32 -57 -1 -4 16
-22 37 -40 21 -18 38 -35 37 -38 -1 -7 66 -94 76 -98 5 -2 8 -8 8 -13 0 -12
37 -64 68 -95 12 -13 22 -32 22 -44 0 -11 7 -23 15 -27 18 -6 55 -74 55 -100
0 -10 9 -26 20 -36 11 -9 20 -22 21 -29 2 -34 11 -65 28 -93 26 -44 60 -151
72 -226 6 -35 14 -68 19 -74 5 -6 12 -45 15 -86 4 -40 10 -92 15 -115 12 -55
4 -383 -11 -462 -11 -54 -11 -67 4 -97 9 -19 13 -35 9 -35 -12 0 -376 253
-762 530 -58 41 -124 88 -146 103 -60 41 -92 76 -76 86 14 9 72 126 72 145 0
7 7 27 15 44 9 17 18 48 21 69 2 21 13 56 24 78 23 50 55 141 75 219 9 33 20
65 24 70 11 14 61 157 67 194 3 15 16 50 30 79 13 28 24 59 24 67 0 19 52 106
63 106 4 0 10 -7 13 -15z m-2310 -60 c15 -14 31 -25 36 -25 16 0 178 -122 189
-141 5 -11 18 -19 28 -19 10 0 39 -20 64 -45 26 -25 53 -45 62 -45 9 0 18 -6
21 -14 7 -18 90 -77 98 -69 3 3 6 -1 6 -10 0 -8 8 -18 19 -22 10 -3 26 -14 36
-25 9 -10 23 -16 30 -14 7 3 24 -9 36 -26 16 -21 37 -34 67 -42 42 -10 42 -11
25 -30 -10 -11 -112 -88 -226 -171 -115 -83 -213 -159 -218 -168 -5 -10 -6
-37 -3 -60 11 -66 -11 -40 -36 44 -28 89 -155 481 -221 677 -52 157 -68 230
-51 230 6 0 23 -11 38 -25z m1935 -34 c-5 -9 -38 -106 -75 -216 -36 -110 -70
-213 -76 -230 -39 -110 -113 -332 -113 -340 0 -5 3 -20 7 -32 4 -13 3 -23 -2
-23 -5 0 -112 74 -237 165 -126 90 -233 166 -238 168 -19 6 38 69 75 84 21 8
40 22 43 31 6 19 64 62 83 62 7 0 12 4 12 9 0 13 81 71 92 65 4 -3 8 1 8 8 0
15 63 61 88 65 9 1 28 16 42 33 14 16 31 30 38 30 14 0 100 60 86 60 -5 1 5 7
21 14 17 7 44 27 61 44 17 16 39 32 50 34 27 6 46 -10 35 -31z m-2280 -37 c10
-16 18 -35 18 -43 1 -8 12 -38 26 -67 14 -30 28 -68 31 -86 8 -45 49 -164 74
-215 11 -23 20 -50 20 -61 0 -22 44 -151 71 -208 10 -22 20 -54 22 -70 2 -16
11 -45 20 -64 8 -19 17 -46 20 -60 3 -14 17 -53 32 -88 17 -40 23 -68 17 -77
-7 -13 -10 -12 -21 9 l-13 24 -67 -46 c-91 -63 -167 -117 -376 -268 -322 -233
-454 -322 -418 -284 6 7 9 19 6 27 -3 8 -1 18 6 22 9 6 9 31 0 107 -12 110
-15 296 -6 389 12 117 25 200 36 228 6 16 14 50 17 75 3 26 14 64 25 85 10 21
19 45 19 55 0 9 11 39 25 66 14 27 25 58 25 67 0 24 77 176 93 186 7 4 21 26
32 48 10 22 21 42 24 45 17 14 59 78 62 95 2 10 7 17 10 14 9 -6 59 56 59 73
0 8 9 23 20 33 11 10 20 15 20 11 0 -4 8 -2 18 3 23 14 33 10 53 -25z m1463
-208 c-10 -8 -21 -12 -24 -10 -5 6 21 24 34 24 6 0 1 -6 -10 -14z m-81 -362
c-4 -12 0 -14 23 -9 28 6 28 6 9 -9 -16 -14 -21 -14 -33 -2 -8 8 -11 19 -8 25
10 16 16 13 9 -5z m-20 -74 c13 -14 26 -32 29 -42 8 -21 151 -127 189 -140 16
-5 29 -15 29 -22 0 -12 38 -41 55 -41 16 0 65 -41 65 -54 0 -6 8 -11 18 -11 9
0 44 -21 77 -46 33 -25 66 -49 74 -54 12 -7 8 -28 -26 -131 -22 -68 -75 -232
-118 -364 -103 -320 -125 -379 -137 -367 -7 7 -7 21 1 43 6 17 11 37 11 44 0
8 -81 10 -317 7 -175 -2 -346 0 -380 3 -55 6 -62 9 -54 23 6 12 -2 50 -24 122
-19 58 -57 179 -85 270 -29 91 -60 188 -70 215 -9 28 -20 66 -24 87 -6 35 -5
37 29 48 19 6 35 18 35 26 0 9 5 12 10 9 6 -4 24 5 41 19 17 14 35 26 40 26 5
0 9 6 9 14 0 8 12 19 28 24 15 5 46 28 69 51 23 23 51 41 62 41 11 0 22 8 26
18 5 17 165 137 182 137 5 0 25 16 45 35 44 43 78 46 111 10z m712 -230 c3 -6
-1 -7 -9 -4 -18 7 -21 14 -7 14 6 0 13 -4 16 -10z m1372 -132 c-3 -8 -6 -5 -6
6 -1 11 2 17 5 13 3 -3 4 -12 1 -19z m0 -40 c-3 -8 -6 -5 -6 6 -1 11 2 17 5
13 3 -3 4 -12 1 -19z m-3098 -98 c0 -10 -3 -8 -9 5 -12 27 -12 43 0 25 5 -8 9
-22 9 -30z m100 -10 c1 -13 0 -13 -9 0 -5 8 -9 24 -9 35 l0 20 9 -20 c5 -11 9
-27 9 -35z m3008 -7 c-3 -10 -5 -4 -5 12 0 17 2 24 5 18 2 -7 2 -21 0 -30z
m-3375 -51 c-13 -9 -38 -29 -57 -44 -18 -16 -36 -28 -39 -28 -4 0 -15 -8 -26
-17 -29 -28 -80 -55 -80 -44 0 6 11 16 24 23 13 7 39 25 57 40 75 60 115 87
129 87 10 0 7 -6 -8 -17z m348 -43 c12 -23 19 -43 17 -46 -6 -5 35 -125 63
-188 10 -22 21 -56 25 -75 12 -64 58 -195 76 -221 19 -27 19 -27 -4 -32 -12
-3 -233 -6 -491 -6 l-470 -1 24 25 c13 13 31 27 41 30 9 3 34 21 55 40 21 19
46 37 55 40 10 3 34 21 55 40 21 19 43 34 48 33 16 -3 56 25 56 38 0 11 20 24
46 29 17 4 167 117 182 137 7 10 21 18 31 18 9 0 34 18 56 41 21 22 48 44 60
49 13 5 27 24 35 49 7 23 15 41 16 41 2 0 13 -18 24 -41z m1760 -22 c19 -7 51
-27 70 -45 19 -17 42 -32 51 -32 8 0 29 -13 45 -30 16 -16 34 -30 39 -30 6 0
33 -17 61 -38 27 -20 66 -48 85 -61 18 -14 40 -33 47 -43 7 -10 20 -18 27 -18
8 0 36 -20 62 -45 25 -25 51 -45 56 -45 5 0 24 -12 42 -27 62 -53 73 -61 79
-56 5 5 76 -64 76 -74 0 -6 -848 -3 -911 4 l-56 5 8 48 c4 26 17 68 29 94 25
56 60 164 60 188 0 10 14 47 30 83 17 36 30 72 30 81 0 19 18 54 28 54 4 0 23
-6 42 -13z m-2350 -105 c0 -4 -15 -16 -32 -27 -18 -10 -36 -23 -40 -29 -4 -6
-11 -7 -15 -2 -4 5 -3 10 3 13 5 2 26 14 45 28 39 28 39 28 39 17z m-403 -84
c-3 -8 -6 -5 -6 6 -1 11 2 17 5 13 3 -3 4 -12 1 -19z m273 -13 c-7 -9 -15 -13
-17 -11 -7 7 7 26 19 26 6 0 6 -6 -2 -15z m-40 -25 c0 -5 -5 -10 -11 -10 -5 0
-7 5 -4 10 3 6 8 10 11 10 2 0 4 -4 4 -10z m-30 -24 c0 -2 -7 -7 -16 -10 -8
-3 -12 -2 -9 4 6 10 25 14 25 6z m-383 -68 c-3 -8 -6 -5 -6 6 -1 11 2 17 5 13
3 -3 4 -12 1 -19z m123 -68 c0 -5 -4 -10 -10 -10 -5 0 -10 5 -10 10 0 6 5 10
10 10 6 0 10 -4 10 -10z m3926 -81 c4 -8 1 -8 -14 0 -12 6 -24 16 -28 22 -4 8
-1 8 14 0 12 -6 24 -16 28 -22z m-236 -87 c0 -15 -2 -15 -10 -2 -13 20 -13 33
0 25 6 -3 10 -14 10 -23z m-3381 -18 c2 -2 -26 -4 -62 -4 -37 0 -67 4 -67 10
0 9 118 3 129 -6z m3346 6 c4 -6 -12 -9 -42 -9 -47 2 -47 2 -13 9 19 4 38 8
42 9 4 0 10 -3 13 -9z m-3252 -7 c-7 -2 -19 -2 -25 0 -7 3 -2 5 12 5 14 0 19
-2 13 -5z m3044 1 c-3 -3 -12 -4 -19 -1 -8 3 -5 6 6 6 11 1 17 -2 13 -5z m772
-93 c63 -41 109 -77 102 -79 -7 -2 -34 11 -59 29 -92 64 -182 132 -182 136 0
5 -6 8 139 -86z m-2014 -121 c-4 -12 -9 -19 -12 -17 -3 3 -2 15 2 27 4 12 9
19 12 17 3 -3 2 -15 -2 -27z m-472 -36 c12 -12 72 -13 94 -2 16 8 46 8 103 2
44 -6 80 -6 80 -2 0 4 40 7 90 5 106 -2 103 3 61 -118 -16 -46 -49 -149 -74
-229 -126 -399 -180 -566 -185 -575 -7 -11 -37 80 -175 536 -19 64 -52 169
-72 233 -39 121 -38 132 5 149 21 8 65 8 73 1z m1657 -4 c14 -6 77 -4 87 3 26
19 133 -12 133 -38 0 -38 -194 -301 -309 -418 -173 -178 -323 -286 -534 -387
-186 -89 -379 -150 -527 -166 -30 -4 -60 -13 -67 -21 -6 -8 -14 -10 -16 -5 -7
11 13 92 23 92 4 0 11 20 14 45 4 24 11 47 15 50 5 2 13 25 20 50 6 25 16 65
22 90 7 25 16 45 20 45 5 0 9 11 9 25 0 14 7 42 16 63 8 20 19 59 25 86 5 27
17 67 28 90 23 51 58 160 65 206 3 20 14 51 24 70 11 19 22 48 26 64 10 39 27
54 67 58 38 3 851 2 859 -2z m337 4 c-3 -3 -12 -4 -19 -1 -8 3 -5 6 6 6 11 1
17 -2 13 -5z m153 -10 c0 -10 -6 -11 -22 -5 -13 4 -28 6 -35 4 -7 -2 -20 0
-30 6 -14 8 -6 10 35 9 36 0 52 -5 52 -14z m-3420 -4 c0 -10 67 -9 85 1 6 3
186 5 400 5 l390 -1 10 -50 c6 -28 13 -54 16 -60 4 -5 10 -26 14 -45 4 -19 11
-39 15 -45 8 -10 15 -34 41 -137 6 -27 15 -48 19 -48 4 0 11 -20 14 -45 4 -24
11 -47 16 -50 5 -3 16 -37 24 -75 9 -38 22 -84 30 -102 17 -40 49 -143 66
-218 7 -30 17 -57 21 -61 13 -8 24 -99 12 -99 -6 0 -14 9 -19 21 -8 17 -33 27
-120 49 -112 28 -267 86 -377 141 -305 153 -592 418 -769 713 -27 44 -48 83
-48 88 0 4 13 8 29 8 17 0 33 5 36 10 8 13 95 13 95 0z m3210 6 c0 -2 -7 -9
-15 -16 -13 -11 -14 -10 -9 4 5 14 24 23 24 12z m-3616 -21 c3 -8 1 -15 -4
-15 -6 0 -10 7 -10 15 0 8 2 15 4 15 2 0 6 -7 10 -15z m39 8 c-7 -2 -19 -2
-25 0 -7 3 -2 5 12 5 14 0 19 -2 13 -5z m47 3 c0 -2 -7 -6 -15 -10 -8 -3 -15
-1 -15 4 0 6 7 10 15 10 8 0 15 -2 15 -4z m107 -10 c4 -3 -17 -6 -45 -6 -29 0
-52 5 -52 10 0 11 86 7 97 -4z m37 -22 c3 -8 2 -12 -4 -9 -6 3 -10 10 -10 16
0 14 7 11 14 -7z m3325 -59 c-12 -19 -23 -35 -25 -35 -6 0 14 40 29 58 18 23
16 12 -4 -23z m-2859 -511 c0 -10 -36 16 -60 42 -23 26 -22 25 18 -5 23 -18
42 -35 42 -37z m2475 37 c-3 -6 -11 -11 -17 -11 -6 0 -6 6 2 15 14 17 26 13
15 -4z m-37 -36 c-2 -1 -14 -8 -28 -15 -25 -13 -25 -13 -6 8 10 12 23 19 28
16 5 -3 8 -7 6 -9z m-68 -50 c-7 -9 -15 -13 -17 -11 -7 7 7 26 19 26 6 0 6 -6
-2 -15z m-2080 -146 c22 -12 43 -25 45 -30 7 -11 -73 25 -88 40 -17 17 -2 13
43 -10z m105 -59 c3 -5 1 -10 -4 -10 -6 0 -11 5 -11 10 0 6 2 10 4 10 3 0 8
-4 11 -10z m1095 -164 c0 -3 -4 -8 -10 -11 -5 -3 -10 -1 -10 4 0 6 5 11 10 11
6 0 10 -2 10 -4z m-577 -48 c4 -31 2 -46 -7 -37 -10 11 -17 69 -8 69 5 0 12
-15 15 -32z"/>
</g>
</svg>
